<?xml version="1.0" standalone="no"?>
<!DOCTYPE svg PUBLIC "-//W3C//DTD SVG 20010904//EN"
 "http://www.w3.org/TR/2001/REC-SVG-20010904/DTD/svg10.dtd">
<svg version="1.0" xmlns="http://www.w3.org/2000/svg"
 width="303.000000pt" height="215.000000pt" viewBox="0 0 303.000000 215.000000"
 preserveAspectRatio="xMidYMid meet">
<metadata>
Created by potrace 1.16, written by Peter Selinger 2001-2019
</metadata>
<g transform="translate(0.000000,215.000000) scale(0.100000,-0.100000)"
fill="#000000" stroke="none">
<path d="M0 1075 l0 -1075 1515 0 1515 0 0 1075 0 1075 -1515 0 -1515 0 0
-1075z m2570 55 l0 -760 -1070 0 -1070 0 0 760 0 760 1070 0 1070 0 0 -760z"/>
<path d="M1548 1505 c-67 -22 -113 -71 -128 -137 -26 -116 25 -190 186 -269
123 -60 144 -82 144 -151 0 -41 -5 -54 -28 -78 -59 -58 -163 -60 -268 -4 -37
20 -49 22 -55 12 -24 -37 0 -81 59 -106 146 -63 316 -22 373 90 30 59 30 142
-2 197 -26 46 -48 63 -188 136 -114 59 -142 96 -126 160 21 83 127 106 232 52
29 -15 55 -27 58 -27 3 0 5 21 5 46 0 44 -1 46 -45 65 -60 27 -157 33 -217 14z"/>
<path d="M1167 1504 c-4 -4 -7 -131 -7 -283 -1 -292 -7 -357 -36 -378 -23 -17
-72 -16 -104 2 -37 21 -40 19 -40 -28 0 -50 17 -64 85 -74 64 -8 128 18 157
65 23 37 23 40 23 367 l0 330 -35 3 c-20 2 -39 0 -43 -4z"/>
</g>
</svg>
